<mxfile host="app.diagrams.net" modified="2022-03-28T12:48:01.274Z" agent="5.0 (Windows NT 10.0; Win64; x64) AppleWebKit/537.36 (KHTML, like Gecko) Chrome/99.0.4844.84 Safari/537.36" etag="gMhAjrMNV4P3o6EwE2JQ" version="17.2.1" type="github" pages="4">
  <diagram id="C5RBs43oDa-KdzZeNtuy" name="Page-1">
    <mxGraphModel dx="7671" dy="3904" grid="1" gridSize="10" guides="1" tooltips="1" connect="1" arrows="1" fold="1" page="1" pageScale="1" pageWidth="827" pageHeight="1169" math="0" shadow="0">
      <root>
        <mxCell id="WIyWlLk6GJQsqaUBKTNV-0" />
        <mxCell id="WIyWlLk6GJQsqaUBKTNV-1" parent="WIyWlLk6GJQsqaUBKTNV-0" />
        <mxCell id="kQizsI3hSKFdPFuHRwPH-3" value="" style="rounded=1;whiteSpace=wrap;html=1;fontSize=24;fillColor=#e1d5e7;strokeColor=#9673a6;" parent="WIyWlLk6GJQsqaUBKTNV-1" vertex="1">
          <mxGeometry x="30" y="2190" width="830" height="520" as="geometry" />
        </mxCell>
        <mxCell id="6e47pYrP9tXWvS3FiHHN-2" value="" style="rounded=1;whiteSpace=wrap;html=1;fillColor=#fff2cc;strokeColor=#d6b656;" parent="WIyWlLk6GJQsqaUBKTNV-1" vertex="1">
          <mxGeometry x="-310" y="-490" width="1850" height="420" as="geometry" />
        </mxCell>
        <mxCell id="nAWJPG4-1q_OBBmetqR0-44" value="" style="rounded=1;whiteSpace=wrap;html=1;fontSize=18;fillColor=#fff2cc;gradientColor=#ffd966;strokeColor=#d6b656;" parent="WIyWlLk6GJQsqaUBKTNV-1" vertex="1">
          <mxGeometry x="1980" y="760" width="3440" height="2260" as="geometry" />
        </mxCell>
        <mxCell id="nAWJPG4-1q_OBBmetqR0-33" value="" style="rounded=0;whiteSpace=wrap;html=1;fontSize=24;fillColor=#dae8fc;strokeColor=#6c8ebf;" parent="WIyWlLk6GJQsqaUBKTNV-1" vertex="1">
          <mxGeometry x="3480" y="1800" width="1810" height="1150" as="geometry" />
        </mxCell>
        <mxCell id="3AaT0U5LROBGEmsXFWls-0" value="&lt;span style=&quot;font-size: 24px ; font-style: italic ; font-weight: 700&quot;&gt;ZohoController&lt;/span&gt;" style="rounded=1;whiteSpace=wrap;html=1;" parent="WIyWlLk6GJQsqaUBKTNV-1" vertex="1">
          <mxGeometry x="-1469" y="260" width="240" height="181" as="geometry" />
        </mxCell>
        <mxCell id="3AaT0U5LROBGEmsXFWls-1" value="&lt;span style=&quot;font-size: 24px ; font-style: italic ; font-weight: 700&quot;&gt;ZohoModule&lt;/span&gt;" style="rounded=1;whiteSpace=wrap;html=1;" parent="WIyWlLk6GJQsqaUBKTNV-1" vertex="1">
          <mxGeometry x="-1469" y="600" width="240" height="181" as="geometry" />
        </mxCell>
        <mxCell id="3AaT0U5LROBGEmsXFWls-2" value="&lt;span style=&quot;font-size: 24px ; font-style: italic ; font-weight: 700&quot;&gt;ZohoService&lt;/span&gt;" style="rounded=1;whiteSpace=wrap;html=1;" parent="WIyWlLk6GJQsqaUBKTNV-1" vertex="1">
          <mxGeometry x="-1469" y="940" width="240" height="181" as="geometry" />
        </mxCell>
        <mxCell id="3AaT0U5LROBGEmsXFWls-3" value="&lt;h1 style=&quot;font-size: 22px&quot;&gt;&lt;span style=&quot;font-weight: 400&quot;&gt;Le controller permets de redistribuer les appels à l&#39;API aux méthodes nécessaires. C&#39;est un peu comme une télécommande.&lt;/span&gt;&lt;/h1&gt;" style="text;html=1;strokeColor=none;fillColor=none;spacing=5;spacingTop=-20;whiteSpace=wrap;overflow=hidden;rounded=0;" parent="WIyWlLk6GJQsqaUBKTNV-1" vertex="1">
          <mxGeometry x="-1199" y="304.5" width="420" height="92" as="geometry" />
        </mxCell>
        <mxCell id="3AaT0U5LROBGEmsXFWls-4" value="&lt;h1 style=&quot;font-size: 22px&quot;&gt;&lt;span style=&quot;font-weight: 400&quot;&gt;Le module va contenir la logique, il va faire tout le traitement dont on aura besoin. Tout ce qui prends du temps ou nécéssite de la reflexion se trouve ici. On pourrait imaginer cet étape comme un grand hangar de chaine de production avec des robots.&lt;/span&gt;&lt;/h1&gt;" style="text;html=1;strokeColor=none;fillColor=none;spacing=5;spacingTop=-20;whiteSpace=wrap;overflow=hidden;rounded=0;" parent="WIyWlLk6GJQsqaUBKTNV-1" vertex="1">
          <mxGeometry x="-1199" y="595.37" width="420" height="190.25" as="geometry" />
        </mxCell>
        <mxCell id="3AaT0U5LROBGEmsXFWls-5" value="&lt;span style=&quot;font-size: 24px ; font-style: italic ; font-weight: 700&quot;&gt;Utils&lt;/span&gt;" style="rounded=1;whiteSpace=wrap;html=1;" parent="WIyWlLk6GJQsqaUBKTNV-1" vertex="1">
          <mxGeometry x="-1949" y="595.37" width="240" height="181" as="geometry" />
        </mxCell>
        <mxCell id="3AaT0U5LROBGEmsXFWls-6" value="&lt;h1 style=&quot;font-size: 22px&quot;&gt;&lt;span style=&quot;font-weight: 400&quot;&gt;Utils, c&#39;est des &lt;/span&gt;utilitaires&lt;span style=&quot;font-weight: 400&quot;&gt;, c&#39;est un bouquet de méthodes qui sont réutilisées plusieurs fois dans le code, et qui sont indépendantes des &quot;flux de donnée&quot; que sont les autres méthodes&lt;/span&gt;&lt;/h1&gt;" style="text;html=1;strokeColor=none;fillColor=none;spacing=5;spacingTop=-20;whiteSpace=wrap;overflow=hidden;rounded=0;" parent="WIyWlLk6GJQsqaUBKTNV-1" vertex="1">
          <mxGeometry x="-2380" y="622.25" width="420" height="136.5" as="geometry" />
        </mxCell>
        <mxCell id="3AaT0U5LROBGEmsXFWls-7" value="&lt;h1 style=&quot;font-size: 22px&quot;&gt;&lt;span style=&quot;font-weight: 400&quot;&gt;Le service c&#39;est l&#39;étape de &quot;récupération&quot; des données, et uniquement de récupération. C&#39;est l&#39;équivalent des robots de la chaine de production : les méthodes contenues ne font que &lt;/span&gt;retourner &lt;span style=&quot;font-weight: 400&quot;&gt;des données aux méthodes qui les appellent.&lt;/span&gt;&lt;/h1&gt;" style="text;html=1;strokeColor=none;fillColor=none;spacing=5;spacingTop=-20;whiteSpace=wrap;overflow=hidden;rounded=0;" parent="WIyWlLk6GJQsqaUBKTNV-1" vertex="1">
          <mxGeometry x="-1199" y="950.5" width="420" height="160" as="geometry" />
        </mxCell>
        <mxCell id="3AaT0U5LROBGEmsXFWls-8" value="" style="endArrow=classic;html=1;rounded=0;fontSize=22;exitX=0.5;exitY=1;exitDx=0;exitDy=0;entryX=0.5;entryY=0;entryDx=0;entryDy=0;" parent="WIyWlLk6GJQsqaUBKTNV-1" source="3AaT0U5LROBGEmsXFWls-0" target="3AaT0U5LROBGEmsXFWls-1" edge="1">
          <mxGeometry width="50" height="50" relative="1" as="geometry">
            <mxPoint x="-1319" y="902" as="sourcePoint" />
            <mxPoint x="-1269" y="852" as="targetPoint" />
          </mxGeometry>
        </mxCell>
        <mxCell id="3AaT0U5LROBGEmsXFWls-9" value="" style="endArrow=classic;html=1;rounded=0;fontSize=22;exitX=0.5;exitY=1;exitDx=0;exitDy=0;entryX=0.5;entryY=0;entryDx=0;entryDy=0;" parent="WIyWlLk6GJQsqaUBKTNV-1" edge="1">
          <mxGeometry width="50" height="50" relative="1" as="geometry">
            <mxPoint x="-1349.71" y="781" as="sourcePoint" />
            <mxPoint x="-1349.71" y="940" as="targetPoint" />
          </mxGeometry>
        </mxCell>
        <mxCell id="3AaT0U5LROBGEmsXFWls-10" value="" style="endArrow=classic;html=1;rounded=0;fontSize=22;exitX=0.5;exitY=1;exitDx=0;exitDy=0;entryX=1;entryY=0.75;entryDx=0;entryDy=0;" parent="WIyWlLk6GJQsqaUBKTNV-1" target="3AaT0U5LROBGEmsXFWls-5" edge="1">
          <mxGeometry width="50" height="50" relative="1" as="geometry">
            <mxPoint x="-1470.4300000000003" y="1022" as="sourcePoint" />
            <mxPoint x="-1470.43" y="1181" as="targetPoint" />
          </mxGeometry>
        </mxCell>
        <mxCell id="3AaT0U5LROBGEmsXFWls-11" value="" style="endArrow=classic;html=1;rounded=0;fontSize=22;exitX=0;exitY=0.5;exitDx=0;exitDy=0;entryX=1;entryY=0.5;entryDx=0;entryDy=0;" parent="WIyWlLk6GJQsqaUBKTNV-1" source="3AaT0U5LROBGEmsXFWls-1" target="3AaT0U5LROBGEmsXFWls-5" edge="1">
          <mxGeometry width="50" height="50" relative="1" as="geometry">
            <mxPoint x="-1469.0000000000002" y="702.88" as="sourcePoint" />
            <mxPoint x="-1707.57" y="411.9999999999999" as="targetPoint" />
          </mxGeometry>
        </mxCell>
        <mxCell id="3AaT0U5LROBGEmsXFWls-12" value="" style="endArrow=classic;html=1;rounded=0;fontSize=22;exitX=0;exitY=0.5;exitDx=0;exitDy=0;entryX=1;entryY=0.5;entryDx=0;entryDy=0;" parent="WIyWlLk6GJQsqaUBKTNV-1" source="3AaT0U5LROBGEmsXFWls-0" edge="1">
          <mxGeometry width="50" height="50" relative="1" as="geometry">
            <mxPoint x="-1469" y="626.88" as="sourcePoint" />
            <mxPoint x="-1709" y="622.25" as="targetPoint" />
          </mxGeometry>
        </mxCell>
        <mxCell id="nAWJPG4-1q_OBBmetqR0-10" value="&amp;nbsp;&lt;font style=&quot;font-size: 48px&quot;&gt;Company (objet)&lt;/font&gt;" style="text;html=1;strokeColor=#b85450;fillColor=#f8cecc;align=center;verticalAlign=middle;whiteSpace=wrap;rounded=0;" parent="WIyWlLk6GJQsqaUBKTNV-1" vertex="1">
          <mxGeometry x="3055" y="1170" width="300" height="150" as="geometry" />
        </mxCell>
        <mxCell id="nAWJPG4-1q_OBBmetqR0-11" value="&lt;font style=&quot;font-size: 48px&quot;&gt;Projects&lt;br&gt;&amp;nbsp;(liste d&#39;objets)&lt;/font&gt;" style="text;html=1;strokeColor=#b85450;fillColor=#f8cecc;align=center;verticalAlign=middle;whiteSpace=wrap;rounded=0;" parent="WIyWlLk6GJQsqaUBKTNV-1" vertex="1">
          <mxGeometry x="3042.5" y="1520" width="325" height="150" as="geometry" />
        </mxCell>
        <mxCell id="nAWJPG4-1q_OBBmetqR0-12" value="&lt;font style=&quot;font-size: 48px&quot;&gt;Orders&amp;nbsp;&lt;br&gt;(liste d&#39;objets)&lt;br&gt;&lt;/font&gt;" style="text;html=1;strokeColor=#b85450;fillColor=#f8cecc;align=center;verticalAlign=middle;whiteSpace=wrap;rounded=0;" parent="WIyWlLk6GJQsqaUBKTNV-1" vertex="1">
          <mxGeometry x="2720" y="1860" width="300" height="150" as="geometry" />
        </mxCell>
        <mxCell id="nAWJPG4-1q_OBBmetqR0-13" value="&lt;font style=&quot;font-size: 48px&quot;&gt;Invoices&amp;nbsp;&lt;br&gt;(liste d&#39;objets)&lt;br&gt;&lt;/font&gt;" style="text;html=1;strokeColor=#b85450;fillColor=#f8cecc;align=center;verticalAlign=middle;whiteSpace=wrap;rounded=0;" parent="WIyWlLk6GJQsqaUBKTNV-1" vertex="1">
          <mxGeometry x="2720" y="2320" width="300" height="150" as="geometry" />
        </mxCell>
        <mxCell id="nAWJPG4-1q_OBBmetqR0-14" value="&lt;font style=&quot;font-size: 48px&quot;&gt;Deliveries&amp;nbsp;&lt;br&gt;(liste d&#39;objets resources)&lt;br&gt;&lt;/font&gt;" style="text;html=1;strokeColor=#b85450;fillColor=#f8cecc;align=center;verticalAlign=middle;whiteSpace=wrap;rounded=0;" parent="WIyWlLk6GJQsqaUBKTNV-1" vertex="1">
          <mxGeometry x="3501" y="1860" width="300" height="960" as="geometry" />
        </mxCell>
        <mxCell id="nAWJPG4-1q_OBBmetqR0-18" value="&lt;font style=&quot;font-size: 48px&quot;&gt;KeyWords (string)&lt;/font&gt;" style="text;html=1;strokeColor=#BD7000;fillColor=#f0a30a;align=center;verticalAlign=middle;whiteSpace=wrap;rounded=0;fontColor=#000000;" parent="WIyWlLk6GJQsqaUBKTNV-1" vertex="1">
          <mxGeometry x="3055" y="820" width="300" height="150" as="geometry" />
        </mxCell>
        <mxCell id="nAWJPG4-1q_OBBmetqR0-19" value="" style="shape=flexArrow;endArrow=classic;html=1;rounded=0;fontSize=48;fillColor=#e1d5e7;strokeColor=#9673a6;endWidth=22.666666666666668;endSize=11.133333333333333;exitX=0.5;exitY=1;exitDx=0;exitDy=0;" parent="WIyWlLk6GJQsqaUBKTNV-1" source="nAWJPG4-1q_OBBmetqR0-18" edge="1">
          <mxGeometry width="50" height="50" relative="1" as="geometry">
            <mxPoint x="3210" y="1060" as="sourcePoint" />
            <mxPoint x="3205" y="1180" as="targetPoint" />
            <Array as="points" />
          </mxGeometry>
        </mxCell>
        <mxCell id="nAWJPG4-1q_OBBmetqR0-20" value="&lt;p style=&quot;line-height: 1&quot;&gt;&lt;/p&gt;&lt;div style=&quot;text-align: justify ; font-size: 24px&quot;&gt;&lt;span&gt;&lt;font style=&quot;font-size: 24px&quot;&gt;getCompanyByKeywords (company_name)&lt;/font&gt;&lt;/span&gt;&lt;/div&gt;&lt;font style=&quot;font-size: 24px&quot;&gt;&lt;div style=&quot;text-align: justify&quot;&gt;&lt;span&gt;Prend en entrée un nom et retourne plusieurs entreprises correspondantes au mot clé. L&#39;objectif est de ne retourner qu&#39;une seule compagnie.&lt;/span&gt;&lt;/div&gt;&lt;/font&gt;&lt;p&gt;&lt;/p&gt;" style="text;html=1;strokeColor=none;fillColor=none;align=center;verticalAlign=middle;whiteSpace=wrap;rounded=0;fontSize=48;" parent="WIyWlLk6GJQsqaUBKTNV-1" vertex="1">
          <mxGeometry x="3240" y="1000" width="580" height="120" as="geometry" />
        </mxCell>
        <mxCell id="nAWJPG4-1q_OBBmetqR0-21" value="" style="shape=flexArrow;endArrow=classic;html=1;rounded=0;fontSize=48;fillColor=#e1d5e7;strokeColor=#9673a6;endWidth=22.666666666666668;endSize=11.133333333333333;exitX=0.5;exitY=1;exitDx=0;exitDy=0;" parent="WIyWlLk6GJQsqaUBKTNV-1" edge="1">
          <mxGeometry width="50" height="50" relative="1" as="geometry">
            <mxPoint x="3204.29" y="1319.9999999999998" as="sourcePoint" />
            <mxPoint x="3204.29" y="1530" as="targetPoint" />
            <Array as="points" />
          </mxGeometry>
        </mxCell>
        <mxCell id="nAWJPG4-1q_OBBmetqR0-22" value="&lt;p style=&quot;line-height: 1&quot;&gt;&lt;/p&gt;&lt;div style=&quot;text-align: justify ; font-size: 24px&quot;&gt;&lt;span&gt;&lt;font style=&quot;font-size: 24px&quot;&gt;getProjectsByCompany (company)&lt;/font&gt;&lt;/span&gt;&lt;/div&gt;&lt;font style=&quot;font-size: 24px&quot;&gt;&lt;div style=&quot;text-align: justify&quot;&gt;&lt;span&gt;Prend en entrée un un objet company et retourne plusieurs projets correspondantes à notre company (via le compny_id).&lt;/span&gt;&lt;/div&gt;&lt;div style=&quot;text-align: justify&quot;&gt;Pour plus de lisibilité je retourne un objet &lt;b&gt;&lt;font color=&quot;#ff3333&quot;&gt;company_final (à renommer)&lt;/font&gt;&lt;/b&gt; remodelé avec un champs &quot;projects&quot; qui liste tous les projets de notre company (sous forme d&#39;objets)&lt;/div&gt;&lt;/font&gt;&lt;p&gt;&lt;/p&gt;" style="text;html=1;strokeColor=none;fillColor=none;align=center;verticalAlign=middle;whiteSpace=wrap;rounded=0;fontSize=48;" parent="WIyWlLk6GJQsqaUBKTNV-1" vertex="1">
          <mxGeometry x="3250" y="1340" width="840" height="160" as="geometry" />
        </mxCell>
        <mxCell id="nAWJPG4-1q_OBBmetqR0-23" value="" style="shape=flexArrow;endArrow=classic;html=1;rounded=0;fontSize=48;fillColor=#e1d5e7;strokeColor=#9673a6;endWidth=22.666666666666668;endSize=11.133333333333333;exitX=0;exitY=0.5;exitDx=0;exitDy=0;" parent="WIyWlLk6GJQsqaUBKTNV-1" source="nAWJPG4-1q_OBBmetqR0-11" target="nAWJPG4-1q_OBBmetqR0-12" edge="1">
          <mxGeometry width="50" height="50" relative="1" as="geometry">
            <mxPoint x="2899.29" y="1540" as="sourcePoint" />
            <mxPoint x="2899.29" y="1750" as="targetPoint" />
            <Array as="points">
              <mxPoint x="2880" y="1680" />
            </Array>
          </mxGeometry>
        </mxCell>
        <mxCell id="nAWJPG4-1q_OBBmetqR0-24" value="&lt;p style=&quot;line-height: 1&quot;&gt;&lt;/p&gt;&lt;div style=&quot;text-align: justify ; font-size: 24px&quot;&gt;&lt;font style=&quot;font-size: 24px&quot;&gt;getOrdersByProject (&lt;b&gt;&lt;font color=&quot;#ff3333&quot;&gt;company_final&lt;/font&gt;&lt;/b&gt;)&lt;/font&gt;&lt;/div&gt;&lt;font style=&quot;font-size: 24px&quot;&gt;&lt;div style=&quot;text-align: justify&quot;&gt;&lt;span&gt;Prend en entrée un un objet company_final qu&#39;on vient de créer. Pour chaque projet de notre compagnies, on cherche les bons de commandes qui sont liés.&lt;/span&gt;&lt;/div&gt;&lt;div style=&quot;text-align: justify&quot;&gt;&lt;span&gt;On met tous ces bons de commandes dans une liste d&#39;objets orders, dans le champs &quot;orders_lies&quot; de projects.&lt;/span&gt;&lt;/div&gt;&lt;div style=&quot;text-align: justify&quot;&gt;&lt;span&gt;Pour plus de lisibilité je retourne un objet company remodelé avec un champs &quot;projects&quot; qui liste tous les projets de notre company (sous forme d&#39;objets)&lt;/span&gt;&lt;/div&gt;&lt;/font&gt;&lt;p&gt;&lt;/p&gt;" style="text;html=1;strokeColor=none;fillColor=none;align=center;verticalAlign=middle;whiteSpace=wrap;rounded=0;fontSize=48;" parent="WIyWlLk6GJQsqaUBKTNV-1" vertex="1">
          <mxGeometry x="2020" y="1540" width="840" height="240" as="geometry" />
        </mxCell>
        <mxCell id="nAWJPG4-1q_OBBmetqR0-25" value="" style="shape=flexArrow;endArrow=classic;html=1;rounded=0;fontSize=48;fillColor=#e1d5e7;strokeColor=#9673a6;endWidth=22.666666666666668;endSize=11.133333333333333;exitX=0.5;exitY=1;exitDx=0;exitDy=0;entryX=0.5;entryY=0.133;entryDx=0;entryDy=0;entryPerimeter=0;" parent="WIyWlLk6GJQsqaUBKTNV-1" target="nAWJPG4-1q_OBBmetqR0-13" edge="1">
          <mxGeometry width="50" height="50" relative="1" as="geometry">
            <mxPoint x="2869.29" y="2010" as="sourcePoint" />
            <mxPoint x="2869.29" y="2220" as="targetPoint" />
            <Array as="points" />
          </mxGeometry>
        </mxCell>
        <mxCell id="nAWJPG4-1q_OBBmetqR0-26" value="&lt;p style=&quot;line-height: 1&quot;&gt;&lt;/p&gt;&lt;div style=&quot;text-align: justify ; font-size: 24px&quot;&gt;&lt;font style=&quot;font-size: 24px&quot;&gt;getInvoicesByOrder (&lt;b&gt;&lt;font color=&quot;#ff3333&quot;&gt;company_final&lt;/font&gt;&lt;/b&gt;)&lt;/font&gt;&lt;/div&gt;&lt;font style=&quot;font-size: 24px&quot;&gt;&lt;div style=&quot;text-align: justify&quot;&gt;&lt;span&gt;Prend en entrée un un objet company_final créé précédemment. Pour chaque bon de commande de notre compagnies, on cherche les factures qui sont liées.&lt;/span&gt;&lt;/div&gt;&lt;div style=&quot;text-align: justify&quot;&gt;&lt;span&gt;On met tous ces factures dans une liste d&#39;objets invoices, dans le champs &quot;invoices_lies&quot; de orders.&lt;/span&gt;&lt;/div&gt;&lt;div style=&quot;text-align: justify&quot;&gt;&lt;span&gt;Pour plus de lisibilité je retourne un objet company remodelé avec un champs &quot;projects&quot; qui liste tous les projets de notre company (sous forme d&#39;objets)&lt;/span&gt;&lt;/div&gt;&lt;/font&gt;&lt;p&gt;&lt;/p&gt;" style="text;html=1;strokeColor=none;fillColor=none;align=center;verticalAlign=middle;whiteSpace=wrap;rounded=0;fontSize=48;" parent="WIyWlLk6GJQsqaUBKTNV-1" vertex="1">
          <mxGeometry x="1990" y="2050" width="860" height="240" as="geometry" />
        </mxCell>
        <mxCell id="nAWJPG4-1q_OBBmetqR0-27" value="&lt;font style=&quot;font-size: 48px&quot;&gt;Resources&lt;/font&gt;" style="text;html=1;strokeColor=#b85450;fillColor=#f8cecc;align=center;verticalAlign=middle;whiteSpace=wrap;rounded=0;" parent="WIyWlLk6GJQsqaUBKTNV-1" vertex="1">
          <mxGeometry x="4214" y="2040" width="300" height="150" as="geometry" />
        </mxCell>
        <mxCell id="nAWJPG4-1q_OBBmetqR0-28" value="&lt;font style=&quot;font-size: 48px&quot;&gt;Times-Reports&lt;/font&gt;" style="text;html=1;strokeColor=#b85450;fillColor=#f8cecc;align=center;verticalAlign=middle;whiteSpace=wrap;rounded=0;" parent="WIyWlLk6GJQsqaUBKTNV-1" vertex="1">
          <mxGeometry x="4230" y="2440" width="300" height="150" as="geometry" />
        </mxCell>
        <mxCell id="nAWJPG4-1q_OBBmetqR0-30" value="" style="shape=flexArrow;endArrow=classic;html=1;rounded=0;fontSize=48;fillColor=#e1d5e7;strokeColor=#9673a6;endWidth=22.666666666666668;endSize=11.133333333333333;exitX=1;exitY=0.5;exitDx=0;exitDy=0;" parent="WIyWlLk6GJQsqaUBKTNV-1" source="nAWJPG4-1q_OBBmetqR0-11" edge="1">
          <mxGeometry width="50" height="50" relative="1" as="geometry">
            <mxPoint x="3660" y="1660" as="sourcePoint" />
            <mxPoint x="3660" y="1870" as="targetPoint" />
            <Array as="points">
              <mxPoint x="3660" y="1680" />
            </Array>
          </mxGeometry>
        </mxCell>
        <mxCell id="nAWJPG4-1q_OBBmetqR0-31" value="&lt;p style=&quot;line-height: 1&quot;&gt;&lt;/p&gt;&lt;div style=&quot;text-align: justify ; font-size: 24px&quot;&gt;&lt;font style=&quot;font-size: 24px&quot;&gt;getDeliveriesByProject (&lt;b&gt;&lt;font color=&quot;#ff3333&quot;&gt;company_final&lt;/font&gt;&lt;/b&gt;)&lt;/font&gt;&lt;/div&gt;&lt;font style=&quot;font-size: 24px&quot;&gt;&lt;div style=&quot;text-align: justify&quot;&gt;&lt;span&gt;Prend en entrée un un objet company_final qu&#39;on vient de créer. Pour chaque projet de notre compagnies, on cherche les livraisons qui sont liées.&lt;/span&gt;&lt;/div&gt;&lt;div style=&quot;text-align: justify&quot;&gt;&lt;span&gt;Pour chaque livraison, on peut trouver les resources_id des consultants ayant travaillés sur le projet. Nous allons récupérer cette liste d&#39;identifiants (sans doublons). Nous allons ensuite utiliser 2 fonctions internes pour compléter l&#39;objet resource avec des infos et les CRA correspondants au projet.&lt;/span&gt;&lt;/div&gt;&lt;/font&gt;&lt;p&gt;&lt;/p&gt;" style="text;html=1;strokeColor=none;fillColor=none;align=center;verticalAlign=middle;whiteSpace=wrap;rounded=0;fontSize=48;" parent="WIyWlLk6GJQsqaUBKTNV-1" vertex="1">
          <mxGeometry x="3700" y="1560" width="840" height="240" as="geometry" />
        </mxCell>
        <mxCell id="nAWJPG4-1q_OBBmetqR0-34" value="" style="shape=flexArrow;endArrow=classic;html=1;rounded=0;fontSize=48;fillColor=#e1d5e7;strokeColor=#9673a6;endWidth=22.666666666666668;endSize=11.133333333333333;" parent="WIyWlLk6GJQsqaUBKTNV-1" target="nAWJPG4-1q_OBBmetqR0-27" edge="1">
          <mxGeometry width="50" height="50" relative="1" as="geometry">
            <mxPoint x="3798" y="1930" as="sourcePoint" />
            <mxPoint x="4090" y="2205" as="targetPoint" />
            <Array as="points" />
          </mxGeometry>
        </mxCell>
        <mxCell id="nAWJPG4-1q_OBBmetqR0-36" value="&lt;p style=&quot;line-height: 1&quot;&gt;&lt;/p&gt;&lt;div style=&quot;text-align: justify ; font-size: 24px&quot;&gt;&lt;font style=&quot;font-size: 24px&quot;&gt;getResourceByResourceId (&lt;font color=&quot;#ff3333&quot;&gt;&lt;b&gt;resource_id&lt;/b&gt;&lt;/font&gt;)&lt;/font&gt;&lt;/div&gt;&lt;font style=&quot;font-size: 24px&quot;&gt;&lt;div style=&quot;text-align: justify&quot;&gt;A partir des deliveries, on récupère les resource_id qui vont permettrent de créer des objets resources. On rajoute les champs nom et prénom pour identifier notre consultant plus simplement.&lt;/div&gt;&lt;div style=&quot;text-align: justify&quot;&gt;&lt;span&gt;Pour l&#39;instant, nos resources ne sont pas encore présentes dans les projects.&lt;/span&gt;&lt;/div&gt;&lt;/font&gt;&lt;p&gt;&lt;/p&gt;" style="text;html=1;strokeColor=none;fillColor=none;align=center;verticalAlign=middle;whiteSpace=wrap;rounded=0;fontSize=48;" parent="WIyWlLk6GJQsqaUBKTNV-1" vertex="1">
          <mxGeometry x="4040" y="1780" width="840" height="240" as="geometry" />
        </mxCell>
        <mxCell id="nAWJPG4-1q_OBBmetqR0-37" value="" style="shape=flexArrow;endArrow=classic;html=1;rounded=0;fontSize=48;fillColor=#e1d5e7;strokeColor=#9673a6;endWidth=22.666666666666668;endSize=11.133333333333333;exitX=0.5;exitY=1;exitDx=0;exitDy=0;" parent="WIyWlLk6GJQsqaUBKTNV-1" source="nAWJPG4-1q_OBBmetqR0-27" edge="1">
          <mxGeometry width="50" height="50" relative="1" as="geometry">
            <mxPoint x="3970.000000000001" y="2307.01" as="sourcePoint" />
            <mxPoint x="4380" y="2460" as="targetPoint" />
            <Array as="points" />
          </mxGeometry>
        </mxCell>
        <mxCell id="nAWJPG4-1q_OBBmetqR0-38" value="&lt;p style=&quot;line-height: 1&quot;&gt;&lt;/p&gt;&lt;div style=&quot;text-align: justify ; font-size: 24px&quot;&gt;&lt;font style=&quot;font-size: 24px&quot;&gt;getTimesReportsByResourceId (&lt;font color=&quot;#ff3333&quot;&gt;&lt;b&gt;resource_id&lt;/b&gt;&lt;/font&gt;)&lt;/font&gt;&lt;/div&gt;&lt;font style=&quot;font-size: 24px&quot;&gt;&lt;div style=&quot;text-align: justify&quot;&gt;A partir des resources et surtout de leurs identifiants, nous pouvons chercher les compte-rendus d&#39;activité de nos consultants (un par mois).&lt;/div&gt;&lt;div style=&quot;text-align: justify&quot;&gt;&lt;span&gt;A partir de là, on regarde mois par mois et jour par jour si notre consultant a travaillé sur le projet. Si oui on rajoute les jours entrés dans un champ nommé &quot;CRA&quot; avec le mois qui correspond en face. Au final on rajoute pour une resource un champ &quot;liste CRA&quot; comprenant des CRA (mois + nombre de jours travaillé pour ce mois). On récupère aussi le TJM a ce moment.&lt;/span&gt;&lt;/div&gt;&lt;/font&gt;&lt;p&gt;&lt;/p&gt;" style="text;html=1;strokeColor=none;fillColor=none;align=center;verticalAlign=middle;whiteSpace=wrap;rounded=0;fontSize=48;" parent="WIyWlLk6GJQsqaUBKTNV-1" vertex="1">
          <mxGeometry x="4410" y="2200" width="840" height="240" as="geometry" />
        </mxCell>
        <mxCell id="nAWJPG4-1q_OBBmetqR0-39" value="" style="shape=flexArrow;endArrow=classic;html=1;rounded=0;fontSize=48;fillColor=#e1d5e7;strokeColor=#9673a6;endWidth=22.666666666666668;endSize=11.133333333333333;exitX=0.5;exitY=1;exitDx=0;exitDy=0;entryX=0.863;entryY=1.005;entryDx=0;entryDy=0;entryPerimeter=0;" parent="WIyWlLk6GJQsqaUBKTNV-1" source="nAWJPG4-1q_OBBmetqR0-28" edge="1">
          <mxGeometry width="50" height="50" relative="1" as="geometry">
            <mxPoint x="4389" y="2547" as="sourcePoint" />
            <mxPoint x="3768.8999999999996" y="2781.7999999999993" as="targetPoint" />
            <Array as="points">
              <mxPoint x="4260" y="2720" />
            </Array>
          </mxGeometry>
        </mxCell>
        <mxCell id="nAWJPG4-1q_OBBmetqR0-40" value="&lt;p style=&quot;line-height: 1&quot;&gt;&lt;/p&gt;&lt;div style=&quot;text-align: justify ; font-size: 24px&quot;&gt;&lt;span&gt;On rajoute les informations concernant les CRA dans notre objet resources. On va pouvoir retourner nos objets resources dans une liste qui sera liée à un de nos projets.&lt;/span&gt;&lt;br&gt;&lt;/div&gt;&lt;p&gt;&lt;/p&gt;" style="text;html=1;strokeColor=none;fillColor=none;align=center;verticalAlign=middle;whiteSpace=wrap;rounded=0;fontSize=48;" parent="WIyWlLk6GJQsqaUBKTNV-1" vertex="1">
          <mxGeometry x="4320" y="2640" width="840" height="110" as="geometry" />
        </mxCell>
        <mxCell id="nAWJPG4-1q_OBBmetqR0-41" value="&lt;p style=&quot;line-height: 1&quot;&gt;&lt;/p&gt;&lt;div style=&quot;text-align: justify&quot;&gt;&lt;font style=&quot;font-size: 72px&quot;&gt;Partie resources&lt;/font&gt;&lt;br&gt;&lt;/div&gt;&lt;p&gt;&lt;/p&gt;" style="text;html=1;strokeColor=none;fillColor=none;align=center;verticalAlign=middle;whiteSpace=wrap;rounded=0;fontSize=48;" parent="WIyWlLk6GJQsqaUBKTNV-1" vertex="1">
          <mxGeometry x="3965" y="2840" width="840" height="110" as="geometry" />
        </mxCell>
        <mxCell id="nAWJPG4-1q_OBBmetqR0-43" value="&lt;div&gt;&lt;font style=&quot;font-size: 18px&quot;&gt;&lt;u&gt;Exemple de rendu au format json :&lt;/u&gt;&lt;/font&gt;&lt;/div&gt;&lt;div&gt;&lt;font style=&quot;font-size: 18px&quot;&gt;{&amp;nbsp;&lt;/font&gt;&lt;/div&gt;&lt;div&gt;&lt;span&gt;&lt;font size=&quot;3&quot;&gt;&amp;nbsp; &quot;company_name&quot;: &quot;@keywords&quot;,&lt;/font&gt;&lt;/span&gt;&lt;/div&gt;&lt;div&gt;&lt;font size=&quot;3&quot;&gt;&amp;nbsp; &quot;company_id&quot;: &quot;&quot;,&lt;/font&gt;&lt;/div&gt;&lt;div&gt;&lt;font size=&quot;3&quot;&gt;&lt;span&gt;&lt;/span&gt;&amp;nbsp; &quot;derniere_MAJ&quot;: [date],&lt;/font&gt;&lt;/div&gt;&lt;div&gt;&lt;font size=&quot;3&quot;&gt;&amp;nbsp; &quot;projects&quot;: [&lt;/font&gt;&lt;/div&gt;&lt;div&gt;&lt;font size=&quot;3&quot;&gt;&amp;nbsp; &amp;nbsp; &amp;nbsp; &amp;nbsp; {&lt;/font&gt;&lt;/div&gt;&lt;div&gt;&lt;font size=&quot;3&quot;&gt;&amp;nbsp; &amp;nbsp; &amp;nbsp; &amp;nbsp; &amp;nbsp; &amp;nbsp; &quot;project_id&quot;: &quot;&quot;,&lt;/font&gt;&lt;/div&gt;&lt;div&gt;&lt;font size=&quot;3&quot;&gt;&amp;nbsp; &amp;nbsp; &amp;nbsp; &amp;nbsp; &amp;nbsp; &amp;nbsp; &quot;project_name&quot;: &quot;&quot;,&lt;/font&gt;&lt;/div&gt;&lt;div&gt;&lt;font size=&quot;3&quot;&gt;&amp;nbsp; &amp;nbsp; &amp;nbsp; &amp;nbsp; &amp;nbsp; &amp;nbsp; &quot;prix_estime&quot;: [int],&lt;/font&gt;&lt;/div&gt;&lt;div&gt;&lt;font size=&quot;3&quot;&gt;&amp;nbsp; &amp;nbsp; &amp;nbsp; &amp;nbsp; &amp;nbsp; &amp;nbsp; &quot;orders_lies&quot;: [&lt;/font&gt;&lt;/div&gt;&lt;div&gt;&lt;font size=&quot;3&quot;&gt;&amp;nbsp; &amp;nbsp; &amp;nbsp; &amp;nbsp; &amp;nbsp; &amp;nbsp; &amp;nbsp; &amp;nbsp; {&lt;/font&gt;&lt;/div&gt;&lt;div&gt;&lt;font size=&quot;3&quot;&gt;&amp;nbsp; &amp;nbsp; &amp;nbsp; &amp;nbsp; &amp;nbsp; &amp;nbsp; &amp;nbsp; &amp;nbsp; &amp;nbsp; &amp;nbsp; &quot;order_id&quot;: &quot;&quot;,&lt;/font&gt;&lt;/div&gt;&lt;div&gt;&lt;font size=&quot;3&quot;&gt;&amp;nbsp; &amp;nbsp; &amp;nbsp; &amp;nbsp; &amp;nbsp; &amp;nbsp; &amp;nbsp; &amp;nbsp; &amp;nbsp; &amp;nbsp; &quot;order_name&quot;: &quot;&quot;,&lt;/font&gt;&lt;/div&gt;&lt;div&gt;&lt;font size=&quot;3&quot;&gt;&amp;nbsp; &amp;nbsp; &amp;nbsp; &amp;nbsp; &amp;nbsp; &amp;nbsp; &amp;nbsp; &amp;nbsp; &amp;nbsp; &amp;nbsp; &quot;order_ref&quot;: &quot;&quot;,&lt;/font&gt;&lt;/div&gt;&lt;div&gt;&lt;font size=&quot;3&quot;&gt;&amp;nbsp; &amp;nbsp; &amp;nbsp; &amp;nbsp; &amp;nbsp; &amp;nbsp; &amp;nbsp; &amp;nbsp; &amp;nbsp; &amp;nbsp; &quot;invoices_lies&quot;: [&lt;/font&gt;&lt;/div&gt;&lt;div&gt;&lt;font size=&quot;3&quot;&gt;&amp;nbsp; &amp;nbsp; &amp;nbsp; &amp;nbsp; &amp;nbsp; &amp;nbsp; &amp;nbsp; &amp;nbsp; &amp;nbsp; &amp;nbsp; &amp;nbsp; &amp;nbsp; {&lt;/font&gt;&lt;/div&gt;&lt;div&gt;&lt;font size=&quot;3&quot;&gt;&amp;nbsp; &amp;nbsp; &amp;nbsp; &amp;nbsp; &amp;nbsp; &amp;nbsp; &amp;nbsp; &amp;nbsp; &amp;nbsp; &amp;nbsp; &amp;nbsp; &amp;nbsp; &amp;nbsp; &amp;nbsp; &quot;invoice_id&quot;: &quot;&quot;,&lt;/font&gt;&lt;/div&gt;&lt;div&gt;&lt;font size=&quot;3&quot;&gt;&amp;nbsp; &amp;nbsp; &amp;nbsp; &amp;nbsp; &amp;nbsp; &amp;nbsp; &amp;nbsp; &amp;nbsp; &amp;nbsp; &amp;nbsp; &amp;nbsp; &amp;nbsp; &amp;nbsp; &amp;nbsp; &quot;invoice_ref&quot;: &quot;&quot;,&lt;/font&gt;&lt;/div&gt;&lt;div&gt;&lt;font size=&quot;3&quot;&gt;&amp;nbsp; &amp;nbsp; &amp;nbsp; &amp;nbsp; &amp;nbsp; &amp;nbsp; &amp;nbsp; &amp;nbsp; &amp;nbsp; &amp;nbsp; &amp;nbsp; &amp;nbsp; &amp;nbsp; &amp;nbsp; &quot;invoice_montant_HT&quot;: [int]&lt;/font&gt;&lt;/div&gt;&lt;div&gt;&lt;font size=&quot;3&quot;&gt;&amp;nbsp; &amp;nbsp; &amp;nbsp; &amp;nbsp; &amp;nbsp; &amp;nbsp; &amp;nbsp; &amp;nbsp; &amp;nbsp; &amp;nbsp; &amp;nbsp; &amp;nbsp; }&lt;/font&gt;&lt;/div&gt;&lt;div&gt;&lt;font size=&quot;3&quot;&gt;&amp;nbsp; &amp;nbsp; &amp;nbsp; &amp;nbsp; &amp;nbsp; &amp;nbsp; &amp;nbsp; &amp;nbsp; &amp;nbsp; &amp;nbsp; ]&lt;/font&gt;&lt;/div&gt;&lt;div&gt;&lt;font size=&quot;3&quot;&gt;&amp;nbsp; &amp;nbsp; &amp;nbsp; &amp;nbsp; &amp;nbsp; &amp;nbsp; &amp;nbsp; &amp;nbsp; }&lt;/font&gt;&lt;/div&gt;&lt;div&gt;&lt;font size=&quot;3&quot;&gt;&amp;nbsp; &amp;nbsp; &amp;nbsp; &amp;nbsp; &amp;nbsp; &amp;nbsp; ],&lt;/font&gt;&lt;/div&gt;&lt;div&gt;&lt;font size=&quot;3&quot;&gt;&amp;nbsp; &amp;nbsp; &amp;nbsp; &amp;nbsp; &amp;nbsp; &amp;nbsp; &quot;resources_lies&quot;: [&lt;/font&gt;&lt;/div&gt;&lt;div&gt;&lt;font size=&quot;3&quot;&gt;&amp;nbsp; &amp;nbsp; &amp;nbsp; &amp;nbsp; &amp;nbsp; &amp;nbsp; &amp;nbsp; &amp;nbsp; {&lt;/font&gt;&lt;/div&gt;&lt;div&gt;&lt;font size=&quot;3&quot;&gt;&amp;nbsp; &amp;nbsp; &amp;nbsp; &amp;nbsp; &amp;nbsp; &amp;nbsp; &amp;nbsp; &amp;nbsp; &amp;nbsp; &amp;nbsp; &quot;resource_id&quot;: &quot;&quot;,&lt;/font&gt;&lt;/div&gt;&lt;div&gt;&lt;font size=&quot;3&quot;&gt;&amp;nbsp; &amp;nbsp; &amp;nbsp; &amp;nbsp; &amp;nbsp; &amp;nbsp; &amp;nbsp; &amp;nbsp; &amp;nbsp; &amp;nbsp; &quot;prenom&quot;: &quot;&quot;,&lt;/font&gt;&lt;/div&gt;&lt;div&gt;&lt;font size=&quot;3&quot;&gt;&amp;nbsp; &amp;nbsp; &amp;nbsp; &amp;nbsp; &amp;nbsp; &amp;nbsp; &amp;nbsp; &amp;nbsp; &amp;nbsp; &amp;nbsp; &quot;nom&quot;: &quot;&quot;,&lt;/font&gt;&lt;/div&gt;&lt;div&gt;&lt;font size=&quot;3&quot;&gt;&amp;nbsp; &amp;nbsp; &amp;nbsp; &amp;nbsp; &amp;nbsp; &amp;nbsp; &amp;nbsp; &amp;nbsp; &amp;nbsp; &amp;nbsp; &quot;nb_jours_facture&quot;: [int],&lt;/font&gt;&lt;/div&gt;&lt;div&gt;&lt;font size=&quot;3&quot;&gt;&amp;nbsp; &amp;nbsp; &amp;nbsp; &amp;nbsp; &amp;nbsp; &amp;nbsp; &amp;nbsp; &amp;nbsp; &amp;nbsp; &amp;nbsp; &quot;TJM&quot;: (int),&lt;/font&gt;&lt;/div&gt;&lt;div&gt;&lt;font size=&quot;3&quot;&gt;&amp;nbsp; &amp;nbsp; &amp;nbsp; &amp;nbsp; &amp;nbsp; &amp;nbsp; &amp;nbsp; &amp;nbsp; &amp;nbsp; &amp;nbsp; &quot;CRA&quot;: [&lt;/font&gt;&lt;/div&gt;&lt;div&gt;&lt;font size=&quot;3&quot;&gt;&amp;nbsp; &amp;nbsp; &amp;nbsp; &amp;nbsp; &amp;nbsp; &amp;nbsp; &amp;nbsp; &amp;nbsp; &amp;nbsp; &amp;nbsp; &amp;nbsp; &amp;nbsp; {&lt;/font&gt;&lt;/div&gt;&lt;div&gt;&lt;font size=&quot;3&quot;&gt;&amp;nbsp; &amp;nbsp; &amp;nbsp; &amp;nbsp; &amp;nbsp; &amp;nbsp; &amp;nbsp; &amp;nbsp; &amp;nbsp; &amp;nbsp; &amp;nbsp; &amp;nbsp; &amp;nbsp; &amp;nbsp; &quot;mois&quot;: &quot;aaaa-mm&quot;,&lt;/font&gt;&lt;/div&gt;&lt;div&gt;&lt;font size=&quot;3&quot;&gt;&amp;nbsp; &amp;nbsp; &amp;nbsp; &amp;nbsp; &amp;nbsp; &amp;nbsp; &amp;nbsp; &amp;nbsp; &amp;nbsp; &amp;nbsp; &amp;nbsp; &amp;nbsp; &amp;nbsp; &amp;nbsp; &quot;nb_jour_proj&quot;: [int]&lt;/font&gt;&lt;/div&gt;&lt;div&gt;&lt;font size=&quot;3&quot;&gt;&amp;nbsp; &amp;nbsp; &amp;nbsp; &amp;nbsp; &amp;nbsp; &amp;nbsp; &amp;nbsp; &amp;nbsp; &amp;nbsp; &amp;nbsp; &amp;nbsp; &amp;nbsp; },&lt;/font&gt;&lt;/div&gt;&lt;div&gt;&lt;font size=&quot;3&quot;&gt;&amp;nbsp; &amp;nbsp; &amp;nbsp; &amp;nbsp; &amp;nbsp; &amp;nbsp; &amp;nbsp; &amp;nbsp; &amp;nbsp; &amp;nbsp; &amp;nbsp; &amp;nbsp; {&lt;/font&gt;&lt;/div&gt;&lt;div&gt;&lt;font size=&quot;3&quot;&gt;&amp;nbsp; &amp;nbsp; &amp;nbsp; &amp;nbsp; &amp;nbsp; &amp;nbsp; &amp;nbsp; &amp;nbsp; &amp;nbsp; &amp;nbsp; &amp;nbsp; &amp;nbsp; &amp;nbsp; &amp;nbsp; &quot;mois&quot;: &quot;aaaa-mm&quot;,&lt;/font&gt;&lt;/div&gt;&lt;div&gt;&lt;font size=&quot;3&quot;&gt;&amp;nbsp; &amp;nbsp; &amp;nbsp; &amp;nbsp; &amp;nbsp; &amp;nbsp; &amp;nbsp; &amp;nbsp; &amp;nbsp; &amp;nbsp; &amp;nbsp; &amp;nbsp; &amp;nbsp; &amp;nbsp; &quot;nb_jour_proj&quot;: [int]&lt;/font&gt;&lt;/div&gt;&lt;div&gt;&lt;font size=&quot;3&quot;&gt;&amp;nbsp; &amp;nbsp; &amp;nbsp; &amp;nbsp; &amp;nbsp; &amp;nbsp; &amp;nbsp; &amp;nbsp; &amp;nbsp; &amp;nbsp; &amp;nbsp; &amp;nbsp; }&lt;/font&gt;&lt;/div&gt;&lt;div&gt;&lt;font size=&quot;3&quot;&gt;&amp;nbsp; &amp;nbsp; &amp;nbsp; &amp;nbsp; &amp;nbsp; &amp;nbsp; &amp;nbsp; &amp;nbsp; &amp;nbsp; &amp;nbsp; ]&lt;/font&gt;&lt;/div&gt;&lt;div&gt;&lt;font size=&quot;3&quot;&gt;&amp;nbsp; &amp;nbsp; &amp;nbsp; &amp;nbsp; &amp;nbsp; &amp;nbsp; &amp;nbsp; &amp;nbsp; }&lt;/font&gt;&lt;/div&gt;" style="text;html=1;strokeColor=#56517e;fillColor=#d0cee2;align=left;verticalAlign=middle;whiteSpace=wrap;rounded=0;fontSize=11;" parent="WIyWlLk6GJQsqaUBKTNV-1" vertex="1">
          <mxGeometry x="1430" y="360" width="440" height="850" as="geometry" />
        </mxCell>
        <mxCell id="nAWJPG4-1q_OBBmetqR0-46" value="" style="rounded=1;whiteSpace=wrap;html=1;fontSize=72;fillColor=#b1ddf0;strokeColor=#10739e;" parent="WIyWlLk6GJQsqaUBKTNV-1" vertex="1">
          <mxGeometry x="-30" y="1380" width="930" height="650" as="geometry" />
        </mxCell>
        <mxCell id="nAWJPG4-1q_OBBmetqR0-45" value="&lt;font style=&quot;font-size: 72px&quot;&gt;Fonctionnement de la partie BoondManager&lt;/font&gt;" style="text;html=1;strokeColor=none;fillColor=none;align=center;verticalAlign=middle;whiteSpace=wrap;rounded=0;fontSize=18;fontColor=#FF3333;" parent="WIyWlLk6GJQsqaUBKTNV-1" vertex="1">
          <mxGeometry x="4140" y="930" width="930" height="400" as="geometry" />
        </mxCell>
        <mxCell id="nAWJPG4-1q_OBBmetqR0-47" value="&lt;font style=&quot;font-size: 48px&quot; color=&quot;#000000&quot;&gt;Nomenclature des fonctions&lt;/font&gt;" style="text;html=1;strokeColor=none;fillColor=none;align=center;verticalAlign=middle;whiteSpace=wrap;rounded=0;fontSize=72;fontColor=#FF3333;" parent="WIyWlLk6GJQsqaUBKTNV-1" vertex="1">
          <mxGeometry y="1410" width="620" height="80" as="geometry" />
        </mxCell>
        <mxCell id="nAWJPG4-1q_OBBmetqR0-48" value="&lt;font style=&quot;font-size: 24px ; line-height: 1.4&quot;&gt;Un nom de fonction est décomposable en 4 sous-parties avec du Camel Case (les nouveaux mots ont une majuscule, on colle tout) :&lt;br&gt;&lt;ul&gt;&lt;li&gt;&lt;font style=&quot;font-size: 24px&quot;&gt;Le type de notre méthode en minuscules (get / post / update...)&lt;/font&gt;&lt;/li&gt;&lt;li&gt;Ce que va retourner notre fonction, ce que l&#39;on cherche à obtenir (Projects, Orders, Resources...). Attention à la distinction entre singulier et pluriel !&lt;/li&gt;&lt;li&gt;Un mot de liaison, souvent By&lt;/li&gt;&lt;li&gt;Ce qu&#39;on fait passer en entrée, ce qui sert d&#39;argument (CompanyId, Projects, ResourceId, ...)&lt;/li&gt;&lt;/ul&gt;&lt;div&gt;&lt;b&gt;&lt;u&gt;Exemple : getProjectsByCompanyId&lt;/u&gt;&lt;/b&gt;&lt;/div&gt;&lt;div&gt;&lt;b&gt;&lt;u&gt;&lt;br&gt;&lt;/u&gt;&lt;/b&gt;&lt;/div&gt;&lt;div&gt;Pour les routes de Zoho, il n&#39;y a pas d&#39;argument à passer en entrée, on a donc des Services ressemblants à &lt;b&gt;&lt;u&gt;getAccounts&lt;/u&gt;&lt;/b&gt;. Si l&#39;on veut rajouter un service avec un ou des arguments, il faut suivre la nomenclature de Boond.&lt;/div&gt;&lt;/font&gt;" style="text;html=1;strokeColor=none;fillColor=none;align=left;verticalAlign=middle;whiteSpace=wrap;rounded=0;fontSize=48;fontColor=#000000;" parent="WIyWlLk6GJQsqaUBKTNV-1" vertex="1">
          <mxGeometry x="9" y="1450" width="859" height="580" as="geometry" />
        </mxCell>
        <mxCell id="6e47pYrP9tXWvS3FiHHN-0" value="&lt;h1&gt;Si le serveur n&#39;est pas lancé, mettre les deux lignes suivantes dans le serveur BI-1 v2 :&lt;/h1&gt;&lt;div&gt;&lt;br&gt;&lt;/div&gt;" style="text;html=1;strokeColor=none;fillColor=none;spacing=5;spacingTop=-20;whiteSpace=wrap;overflow=hidden;rounded=0;" parent="WIyWlLk6GJQsqaUBKTNV-1" vertex="1">
          <mxGeometry x="65" y="-450" width="1255" height="40" as="geometry" />
        </mxCell>
        <mxCell id="6e47pYrP9tXWvS3FiHHN-4" value="" style="rounded=0;whiteSpace=wrap;html=1;fontFamily=Courier New;fontSize=37;strokeColor=#FF0000;strokeWidth=9;" parent="WIyWlLk6GJQsqaUBKTNV-1" vertex="1">
          <mxGeometry x="60" y="-370" width="1160" height="160" as="geometry" />
        </mxCell>
        <mxCell id="6e47pYrP9tXWvS3FiHHN-1" value="&lt;h1 style=&quot;font-size: 37px&quot;&gt;&lt;font face=&quot;Courier New&quot; style=&quot;font-size: 37px&quot;&gt;$ cd S:\00_Production\INTERNE_BI_Conso\back&lt;/font&gt;&lt;/h1&gt;&lt;h1 style=&quot;font-size: 37px&quot;&gt;&lt;font face=&quot;Courier New&quot; style=&quot;font-size: 37px&quot;&gt;$ p2m start /dist/main.js&lt;br&gt;&lt;/font&gt;&lt;br&gt;&lt;span style=&quot;font-size: 25px&quot;&gt;Pour tester si c&#39;est bien lancé : localhost:3000/zoho/get/accounts (et toutes les routes ci-dessous à tester)&lt;/span&gt;&lt;/h1&gt;" style="text;html=1;strokeColor=none;fillColor=none;spacing=5;spacingTop=-20;whiteSpace=wrap;overflow=hidden;rounded=0;" parent="WIyWlLk6GJQsqaUBKTNV-1" vertex="1">
          <mxGeometry x="65" y="-360" width="1135" height="280" as="geometry" />
        </mxCell>
        <mxCell id="6e47pYrP9tXWvS3FiHHN-3" value="&lt;font style=&quot;font-size: 200px&quot;&gt;⚠️&lt;/font&gt;" style="text;html=1;strokeColor=none;fillColor=none;align=center;verticalAlign=middle;whiteSpace=wrap;rounded=0;" parent="WIyWlLk6GJQsqaUBKTNV-1" vertex="1">
          <mxGeometry x="-265" y="-400" width="265" height="220" as="geometry" />
        </mxCell>
        <mxCell id="kQizsI3hSKFdPFuHRwPH-0" value="&lt;font style=&quot;font-size: 24px&quot;&gt;Attention, le dossier INTERNE_BI_Conso est sur le bureau et non dans le stockage !&lt;/font&gt;" style="text;html=1;strokeColor=none;fillColor=none;align=center;verticalAlign=middle;whiteSpace=wrap;rounded=0;" parent="WIyWlLk6GJQsqaUBKTNV-1" vertex="1">
          <mxGeometry x="1230" y="-350" width="280" height="110" as="geometry" />
        </mxCell>
        <mxCell id="kQizsI3hSKFdPFuHRwPH-1" value="&lt;div style=&quot;text-align: justify&quot;&gt;&lt;ul&gt;&lt;li&gt;&lt;span&gt;ADD : lorsqu&#39;on a rajouté quelque chose.&lt;/span&gt;&lt;/li&gt;&lt;ul&gt;&lt;li&gt;&lt;span&gt;Exemple : ADD BoondService getInvoicesByOrders&lt;/span&gt;&lt;/li&gt;&lt;/ul&gt;&lt;li&gt;REMOVE : lorsqu&#39;on supprime quelque chose, avec une justification c&#39;est encore mieux !&lt;/li&gt;&lt;ul&gt;&lt;li&gt;Exemple : REMOVE points-virgules getUsers&lt;/li&gt;&lt;/ul&gt;&lt;li&gt;UPDATE : pour les modifications / mises à jour&lt;/li&gt;&lt;ul&gt;&lt;li&gt;Exemple : UPDATE BonndService getCompanyByKeywords&lt;/li&gt;&lt;/ul&gt;&lt;li&gt;HOTFIX : réparation d&#39;un bug &quot;à chaud&quot;, c&#39;est souvent la première correction que l&#39;on apporte, pour éviter de tout faire planter&lt;/li&gt;&lt;li&gt;FIX : réparation correcte d&#39;un problème, il n&#39;y a pas besoin d&#39;y retoucher plus tard.&lt;/li&gt;&lt;ul&gt;&lt;li&gt;Exemple : FIX problème génération token jwt&lt;/li&gt;&lt;/ul&gt;&lt;/ul&gt;&lt;/div&gt;" style="text;html=1;strokeColor=none;fillColor=none;align=center;verticalAlign=middle;whiteSpace=wrap;rounded=0;fontSize=24;" parent="WIyWlLk6GJQsqaUBKTNV-1" vertex="1">
          <mxGeometry x="53.5" y="2310" width="770" height="370" as="geometry" />
        </mxCell>
        <mxCell id="kQizsI3hSKFdPFuHRwPH-2" value="&lt;span style=&quot;color: rgb(0 , 0 , 0) ; font-family: &amp;#34;helvetica&amp;#34; ; font-size: 48px ; font-style: normal ; font-weight: 400 ; letter-spacing: normal ; text-align: center ; text-indent: 0px ; text-transform: none ; word-spacing: 0px ; display: inline ; float: none&quot;&gt;Nomenclature des Commit Git&lt;/span&gt;" style="text;whiteSpace=wrap;html=1;fontSize=24;" parent="WIyWlLk6GJQsqaUBKTNV-1" vertex="1">
          <mxGeometry x="71" y="2230" width="740" height="90" as="geometry" />
        </mxCell>
      </root>
    </mxGraphModel>
  </diagram>
  <diagram id="qs391Q0msazxYX6CG7N_" name="nomenclature_routes">
    <mxGraphModel dx="1038" dy="547" grid="1" gridSize="10" guides="1" tooltips="1" connect="1" arrows="1" fold="1" page="1" pageScale="1" pageWidth="827" pageHeight="1169" math="0" shadow="0">
      <root>
        <mxCell id="XHFH6p_mn79H-g3RLbeW-0" />
        <mxCell id="XHFH6p_mn79H-g3RLbeW-1" parent="XHFH6p_mn79H-g3RLbeW-0" />
        <mxCell id="vvz5Y31tKRMW5Cqr2UtY-0" value="&lt;h1&gt;&lt;font style=&quot;font-size: 14px ; line-height: 1&quot;&gt;/zoho/get/accounts&lt;/font&gt; &lt;font style=&quot;font-weight: normal ; font-size: 12px&quot;&gt;(?type= [json] / csv)&lt;/font&gt;&lt;/h1&gt;&lt;p&gt;&lt;font style=&quot;font-size: 11px&quot;&gt;Retourne les comptes dans zoho, au format JSON par défaut, ou en CSV si précisé dans le paramètre &quot;type&quot; de la requète.&lt;/font&gt;&lt;/p&gt;" style="text;html=1;strokeColor=none;fillColor=none;spacing=5;spacingTop=-20;whiteSpace=wrap;overflow=hidden;rounded=0;" vertex="1" parent="XHFH6p_mn79H-g3RLbeW-1">
          <mxGeometry x="80" y="130" width="320" height="80" as="geometry" />
        </mxCell>
        <mxCell id="vvz5Y31tKRMW5Cqr2UtY-1" value="&lt;h1&gt;&lt;font style=&quot;font-size: 14px&quot;&gt;/zoho/get/contacts&lt;/font&gt;&amp;nbsp;&lt;font style=&quot;font-weight: normal ; font-size: 12px&quot;&gt;(?type= [json] / csv)&lt;/font&gt;&lt;/h1&gt;&lt;p&gt;&lt;font style=&quot;font-size: 11px&quot;&gt;Retourne les contacts dans zoho, au format JSON par défaut, ou en CSV si précisé dans le paramètre &quot;type&quot; de la requète.&lt;/font&gt;&lt;br&gt;&lt;/p&gt;" style="text;html=1;strokeColor=none;fillColor=none;spacing=5;spacingTop=-20;whiteSpace=wrap;overflow=hidden;rounded=0;" vertex="1" parent="XHFH6p_mn79H-g3RLbeW-1">
          <mxGeometry x="80" y="249" width="310" height="80" as="geometry" />
        </mxCell>
        <mxCell id="vvz5Y31tKRMW5Cqr2UtY-2" value="&lt;pre&gt;&lt;font style=&quot;font-size: 14px&quot;&gt;GET&lt;/font&gt;&lt;/pre&gt;" style="text;html=1;strokeColor=none;fillColor=none;align=center;verticalAlign=middle;whiteSpace=wrap;rounded=0;fontSize=16;" vertex="1" parent="XHFH6p_mn79H-g3RLbeW-1">
          <mxGeometry x="31" y="140" width="49" height="26" as="geometry" />
        </mxCell>
        <mxCell id="vvz5Y31tKRMW5Cqr2UtY-3" value="&lt;pre&gt;&lt;font style=&quot;font-size: 14px&quot;&gt;GET&lt;/font&gt;&lt;/pre&gt;" style="text;html=1;strokeColor=none;fillColor=none;align=center;verticalAlign=middle;whiteSpace=wrap;rounded=0;fontSize=16;" vertex="1" parent="XHFH6p_mn79H-g3RLbeW-1">
          <mxGeometry x="26" y="258" width="60" height="30" as="geometry" />
        </mxCell>
        <mxCell id="vvz5Y31tKRMW5Cqr2UtY-4" value="&lt;pre&gt;&lt;font style=&quot;font-size: 14px&quot;&gt;GET&lt;/font&gt;&lt;/pre&gt;" style="text;html=1;strokeColor=none;fillColor=none;align=center;verticalAlign=middle;whiteSpace=wrap;rounded=0;fontSize=16;" vertex="1" parent="XHFH6p_mn79H-g3RLbeW-1">
          <mxGeometry x="41" y="383" width="30" height="20" as="geometry" />
        </mxCell>
        <mxCell id="vvz5Y31tKRMW5Cqr2UtY-5" value="&lt;pre&gt;&lt;font style=&quot;font-size: 14px&quot;&gt;GET&lt;/font&gt;&lt;/pre&gt;" style="text;html=1;strokeColor=none;fillColor=none;align=center;verticalAlign=middle;whiteSpace=wrap;rounded=0;fontSize=16;" vertex="1" parent="XHFH6p_mn79H-g3RLbeW-1">
          <mxGeometry x="444" y="145" width="30" height="16" as="geometry" />
        </mxCell>
        <mxCell id="GxIMBx-urVELu6Ze8GYm-0" value="&lt;h1&gt;&lt;font style=&quot;font-size: 14px&quot;&gt;/zoho/get/potentials&lt;/font&gt;&amp;nbsp;&lt;font style=&quot;font-weight: normal ; font-size: 12px&quot;&gt;(?type= [json] / csv)&lt;/font&gt;&lt;/h1&gt;&lt;p&gt;&lt;font style=&quot;font-size: 11px&quot;&gt;Retourne les potentials dans zoho, au format JSON par défaut, ou en CSV si précisé dans le paramètre &quot;type&quot; de la requète.&lt;/font&gt;&lt;br&gt;&lt;/p&gt;" style="text;html=1;strokeColor=none;fillColor=none;spacing=5;spacingTop=-20;whiteSpace=wrap;overflow=hidden;rounded=0;" vertex="1" parent="XHFH6p_mn79H-g3RLbeW-1">
          <mxGeometry x="80" y="370" width="320" height="80" as="geometry" />
        </mxCell>
        <mxCell id="GeMKGj4lL7Ov5kynLauq-0" value="&lt;h1&gt;&lt;font style=&quot;font-size: 14px&quot;&gt;/boond/get/projects&amp;nbsp;&lt;/font&gt;&lt;font style=&quot;font-weight: normal ; font-size: 12px&quot;&gt;(?company=[&amp;lt;string&amp;gt;]&amp;nbsp; / *)&lt;/font&gt;&lt;/h1&gt;&lt;p&gt;&lt;font style=&quot;font-size: 11px&quot;&gt;Retourne une liste (Tableau JSON) de projets de l&#39;entreprise précisée. Si le paramètre &quot;company-name&quot; n&#39;est pas renseigné, l&#39;API renvoie une erreur.&lt;/font&gt;&lt;/p&gt;&lt;p&gt;&lt;font style=&quot;font-size: 11px&quot;&gt;Dans le cas de company=* dans les params, on renvoie tout.&lt;/font&gt;&lt;/p&gt;&lt;p&gt;&lt;font style=&quot;font-size: 11px&quot;&gt;Exemple de réponse ci-contre.&lt;/font&gt;&lt;/p&gt;&lt;p&gt;&lt;br&gt;&lt;/p&gt;" style="text;html=1;strokeColor=none;fillColor=none;spacing=5;spacingTop=-20;whiteSpace=wrap;overflow=hidden;rounded=0;" vertex="1" parent="XHFH6p_mn79H-g3RLbeW-1">
          <mxGeometry x="478" y="131" width="310" height="150" as="geometry" />
        </mxCell>
        <mxCell id="GeMKGj4lL7Ov5kynLauq-1" value="&lt;font style=&quot;font-size: 24px&quot;&gt;Partie Zoho&lt;/font&gt;" style="text;html=1;strokeColor=none;fillColor=none;align=center;verticalAlign=middle;whiteSpace=wrap;rounded=0;fontSize=11;" vertex="1" parent="XHFH6p_mn79H-g3RLbeW-1">
          <mxGeometry x="120" y="90" width="180" height="30" as="geometry" />
        </mxCell>
        <mxCell id="GeMKGj4lL7Ov5kynLauq-2" value="&lt;font style=&quot;font-size: 24px&quot;&gt;Partie Boond&lt;/font&gt;" style="text;html=1;strokeColor=none;fillColor=none;align=center;verticalAlign=middle;whiteSpace=wrap;rounded=0;fontSize=11;" vertex="1" parent="XHFH6p_mn79H-g3RLbeW-1">
          <mxGeometry x="510" y="90" width="180" height="30" as="geometry" />
        </mxCell>
      </root>
    </mxGraphModel>
  </diagram>
  <diagram id="Zf3LLqglmJCMPsF-9uTB" name="diagramme_classes">
    <mxGraphModel dx="1038" dy="547" grid="1" gridSize="10" guides="1" tooltips="1" connect="1" arrows="1" fold="1" page="1" pageScale="1" pageWidth="827" pageHeight="1169" math="0" shadow="0">
      <root>
        <mxCell id="97kiHMk0axNDUqss_M9O-0" />
        <mxCell id="97kiHMk0axNDUqss_M9O-1" parent="97kiHMk0axNDUqss_M9O-0" />
        <mxCell id="hzznEtGv8EUQLKMsVnbS-23" value="ZohoController" style="swimlane;fontStyle=3;align=center;verticalAlign=top;childLayout=stackLayout;horizontal=1;startSize=30;horizontalStack=0;resizeParent=1;resizeLast=0;collapsible=1;marginBottom=0;rounded=0;shadow=0;strokeWidth=1;fontSize=16;" parent="97kiHMk0axNDUqss_M9O-1" vertex="1">
          <mxGeometry x="80" y="270" width="280" height="120" as="geometry">
            <mxRectangle x="230" y="140" width="160" height="26" as="alternateBounds" />
          </mxGeometry>
        </mxCell>
        <mxCell id="hzznEtGv8EUQLKMsVnbS-24" value="getAccounts" style="text;align=left;verticalAlign=top;spacingLeft=4;spacingRight=4;overflow=hidden;rotatable=0;points=[[0,0.5],[1,0.5]];portConstraint=eastwest;rounded=0;shadow=0;html=0;fontSize=12;" parent="hzznEtGv8EUQLKMsVnbS-23" vertex="1">
          <mxGeometry y="30" width="280" height="30" as="geometry" />
        </mxCell>
        <mxCell id="hzznEtGv8EUQLKMsVnbS-25" value="getContacts" style="text;align=left;verticalAlign=top;spacingLeft=4;spacingRight=4;overflow=hidden;rotatable=0;points=[[0,0.5],[1,0.5]];portConstraint=eastwest;rounded=0;shadow=0;html=0;fontSize=12;" parent="hzznEtGv8EUQLKMsVnbS-23" vertex="1">
          <mxGeometry y="60" width="280" height="30" as="geometry" />
        </mxCell>
        <mxCell id="hzznEtGv8EUQLKMsVnbS-26" value="getPotentials" style="text;align=left;verticalAlign=top;spacingLeft=4;spacingRight=4;overflow=hidden;rotatable=0;points=[[0,0.5],[1,0.5]];portConstraint=eastwest;rounded=0;shadow=0;html=0;fontSize=12;" parent="hzznEtGv8EUQLKMsVnbS-23" vertex="1">
          <mxGeometry y="90" width="280" height="30" as="geometry" />
        </mxCell>
        <mxCell id="hzznEtGv8EUQLKMsVnbS-27" value="BoondController" style="swimlane;fontStyle=3;align=center;verticalAlign=top;childLayout=stackLayout;horizontal=1;startSize=30;horizontalStack=0;resizeParent=1;resizeLast=0;collapsible=1;marginBottom=0;rounded=0;shadow=0;strokeWidth=1;fontSize=16;" parent="97kiHMk0axNDUqss_M9O-1" vertex="1">
          <mxGeometry x="480" y="270" width="280" height="60" as="geometry">
            <mxRectangle x="230" y="140" width="160" height="26" as="alternateBounds" />
          </mxGeometry>
        </mxCell>
        <mxCell id="hzznEtGv8EUQLKMsVnbS-28" value="getProjects" style="text;align=left;verticalAlign=top;spacingLeft=4;spacingRight=4;overflow=hidden;rotatable=0;points=[[0,0.5],[1,0.5]];portConstraint=eastwest;rounded=0;shadow=0;html=0;fontSize=12;" parent="hzznEtGv8EUQLKMsVnbS-27" vertex="1">
          <mxGeometry y="30" width="280" height="30" as="geometry" />
        </mxCell>
        <mxCell id="hzznEtGv8EUQLKMsVnbS-31" value="ZohoModule" style="swimlane;fontStyle=3;align=center;verticalAlign=top;childLayout=stackLayout;horizontal=1;startSize=30;horizontalStack=0;resizeParent=1;resizeLast=0;collapsible=1;marginBottom=0;rounded=0;shadow=0;strokeWidth=1;fontSize=16;" parent="97kiHMk0axNDUqss_M9O-1" vertex="1">
          <mxGeometry x="80" y="410" width="280" height="120" as="geometry">
            <mxRectangle x="230" y="140" width="160" height="26" as="alternateBounds" />
          </mxGeometry>
        </mxCell>
        <mxCell id="hzznEtGv8EUQLKMsVnbS-32" value="getAccounts" style="text;align=left;verticalAlign=top;spacingLeft=4;spacingRight=4;overflow=hidden;rotatable=0;points=[[0,0.5],[1,0.5]];portConstraint=eastwest;rounded=0;shadow=0;html=0;fontSize=12;" parent="hzznEtGv8EUQLKMsVnbS-31" vertex="1">
          <mxGeometry y="30" width="280" height="30" as="geometry" />
        </mxCell>
        <mxCell id="hzznEtGv8EUQLKMsVnbS-33" value="getContacts" style="text;align=left;verticalAlign=top;spacingLeft=4;spacingRight=4;overflow=hidden;rotatable=0;points=[[0,0.5],[1,0.5]];portConstraint=eastwest;rounded=0;shadow=0;html=0;fontSize=12;" parent="hzznEtGv8EUQLKMsVnbS-31" vertex="1">
          <mxGeometry y="60" width="280" height="30" as="geometry" />
        </mxCell>
        <mxCell id="hzznEtGv8EUQLKMsVnbS-34" value="getPotentials" style="text;align=left;verticalAlign=top;spacingLeft=4;spacingRight=4;overflow=hidden;rotatable=0;points=[[0,0.5],[1,0.5]];portConstraint=eastwest;rounded=0;shadow=0;html=0;fontSize=12;" parent="hzznEtGv8EUQLKMsVnbS-31" vertex="1">
          <mxGeometry y="90" width="280" height="30" as="geometry" />
        </mxCell>
        <mxCell id="hzznEtGv8EUQLKMsVnbS-35" value="ZohoService" style="swimlane;fontStyle=3;align=center;verticalAlign=top;childLayout=stackLayout;horizontal=1;startSize=30;horizontalStack=0;resizeParent=1;resizeLast=0;collapsible=1;marginBottom=0;rounded=0;shadow=0;strokeWidth=1;fontSize=16;" parent="97kiHMk0axNDUqss_M9O-1" vertex="1">
          <mxGeometry x="80" y="550" width="280" height="120" as="geometry">
            <mxRectangle x="230" y="140" width="160" height="26" as="alternateBounds" />
          </mxGeometry>
        </mxCell>
        <mxCell id="hzznEtGv8EUQLKMsVnbS-36" value="getAccounts" style="text;align=left;verticalAlign=top;spacingLeft=4;spacingRight=4;overflow=hidden;rotatable=0;points=[[0,0.5],[1,0.5]];portConstraint=eastwest;rounded=0;shadow=0;html=0;fontSize=12;" parent="hzznEtGv8EUQLKMsVnbS-35" vertex="1">
          <mxGeometry y="30" width="280" height="30" as="geometry" />
        </mxCell>
        <mxCell id="hzznEtGv8EUQLKMsVnbS-37" value="getContacts" style="text;align=left;verticalAlign=top;spacingLeft=4;spacingRight=4;overflow=hidden;rotatable=0;points=[[0,0.5],[1,0.5]];portConstraint=eastwest;rounded=0;shadow=0;html=0;fontSize=12;" parent="hzznEtGv8EUQLKMsVnbS-35" vertex="1">
          <mxGeometry y="60" width="280" height="30" as="geometry" />
        </mxCell>
        <mxCell id="hzznEtGv8EUQLKMsVnbS-38" value="getPotentials" style="text;align=left;verticalAlign=top;spacingLeft=4;spacingRight=4;overflow=hidden;rotatable=0;points=[[0,0.5],[1,0.5]];portConstraint=eastwest;rounded=0;shadow=0;html=0;fontSize=12;" parent="hzznEtGv8EUQLKMsVnbS-35" vertex="1">
          <mxGeometry y="90" width="280" height="30" as="geometry" />
        </mxCell>
        <mxCell id="hzznEtGv8EUQLKMsVnbS-41" value="BoondModule" style="swimlane;fontStyle=3;align=center;verticalAlign=top;childLayout=stackLayout;horizontal=1;startSize=30;horizontalStack=0;resizeParent=1;resizeLast=0;collapsible=1;marginBottom=0;rounded=0;shadow=0;strokeWidth=1;fontSize=16;" parent="97kiHMk0axNDUqss_M9O-1" vertex="1">
          <mxGeometry x="480" y="360" width="280" height="90" as="geometry">
            <mxRectangle x="230" y="140" width="160" height="26" as="alternateBounds" />
          </mxGeometry>
        </mxCell>
        <mxCell id="hzznEtGv8EUQLKMsVnbS-42" value="getAllProjects" style="text;align=left;verticalAlign=top;spacingLeft=4;spacingRight=4;overflow=hidden;rotatable=0;points=[[0,0.5],[1,0.5]];portConstraint=eastwest;rounded=0;shadow=0;html=0;fontSize=12;" parent="hzznEtGv8EUQLKMsVnbS-41" vertex="1">
          <mxGeometry y="30" width="280" height="30" as="geometry" />
        </mxCell>
        <mxCell id="hzznEtGv8EUQLKMsVnbS-43" value="getProjectsByName" style="text;align=left;verticalAlign=top;spacingLeft=4;spacingRight=4;overflow=hidden;rotatable=0;points=[[0,0.5],[1,0.5]];portConstraint=eastwest;rounded=0;shadow=0;html=0;fontSize=12;" parent="hzznEtGv8EUQLKMsVnbS-41" vertex="1">
          <mxGeometry y="60" width="280" height="30" as="geometry" />
        </mxCell>
        <mxCell id="hzznEtGv8EUQLKMsVnbS-45" value="BoondService" style="swimlane;fontStyle=3;align=center;verticalAlign=top;childLayout=stackLayout;horizontal=1;startSize=30;horizontalStack=0;resizeParent=1;resizeLast=0;collapsible=1;marginBottom=0;rounded=0;shadow=0;strokeWidth=1;fontSize=16;" parent="97kiHMk0axNDUqss_M9O-1" vertex="1">
          <mxGeometry x="455" y="480" width="330" height="320" as="geometry">
            <mxRectangle x="230" y="140" width="160" height="26" as="alternateBounds" />
          </mxGeometry>
        </mxCell>
        <mxCell id="hzznEtGv8EUQLKMsVnbS-46" value="getCompaniesByKeywords : pour les recherches" style="text;align=left;verticalAlign=top;spacingLeft=4;spacingRight=4;overflow=hidden;rotatable=0;points=[[0,0.5],[1,0.5]];portConstraint=eastwest;rounded=0;shadow=0;html=0;fontSize=12;" parent="hzznEtGv8EUQLKMsVnbS-45" vertex="1">
          <mxGeometry y="30" width="330" height="30" as="geometry" />
        </mxCell>
        <mxCell id="hzznEtGv8EUQLKMsVnbS-47" value="getProjectsByCompany : Tous les projets de la company" style="text;align=left;verticalAlign=top;spacingLeft=4;spacingRight=4;overflow=hidden;rotatable=0;points=[[0,0.5],[1,0.5]];portConstraint=eastwest;rounded=0;shadow=0;html=0;fontSize=12;" parent="hzznEtGv8EUQLKMsVnbS-45" vertex="1">
          <mxGeometry y="60" width="330" height="30" as="geometry" />
        </mxCell>
        <mxCell id="hzznEtGv8EUQLKMsVnbS-48" value="getOrdersByProjects : Tous les orders liés à un projet" style="text;align=left;verticalAlign=top;spacingLeft=4;spacingRight=4;overflow=hidden;rotatable=0;points=[[0,0.5],[1,0.5]];portConstraint=eastwest;rounded=0;shadow=0;html=0;fontSize=12;" parent="hzznEtGv8EUQLKMsVnbS-45" vertex="1">
          <mxGeometry y="90" width="330" height="30" as="geometry" />
        </mxCell>
        <mxCell id="hzznEtGv8EUQLKMsVnbS-49" value="getInvoicesByOrder : Toutes mes invoices par order_id" style="text;align=left;verticalAlign=top;spacingLeft=4;spacingRight=4;overflow=hidden;rotatable=0;points=[[0,0.5],[1,0.5]];portConstraint=eastwest;rounded=0;shadow=0;html=0;fontSize=12;" parent="hzznEtGv8EUQLKMsVnbS-45" vertex="1">
          <mxGeometry y="120" width="330" height="30" as="geometry" />
        </mxCell>
        <mxCell id="hzznEtGv8EUQLKMsVnbS-50" value="getResourcesByProject : toutes les resources par project_id" style="text;align=left;verticalAlign=top;spacingLeft=4;spacingRight=4;overflow=hidden;rotatable=0;points=[[0,0.5],[1,0.5]];portConstraint=eastwest;rounded=0;shadow=0;html=0;fontSize=12;" parent="hzznEtGv8EUQLKMsVnbS-45" vertex="1">
          <mxGeometry y="150" width="330" height="30" as="geometry" />
        </mxCell>
        <mxCell id="hzznEtGv8EUQLKMsVnbS-53" value="getResourceByResourceId : On récupère les infos concer-&#xa;nant une resource" style="text;align=left;verticalAlign=top;spacingLeft=4;spacingRight=4;overflow=hidden;rotatable=0;points=[[0,0.5],[1,0.5]];portConstraint=eastwest;rounded=0;shadow=0;html=0;fontSize=12;" parent="hzznEtGv8EUQLKMsVnbS-45" vertex="1">
          <mxGeometry y="180" width="330" height="40" as="geometry" />
        </mxCell>
        <mxCell id="hzznEtGv8EUQLKMsVnbS-51" value="getTimesReportsIdByResourceId : On récupère des id de&#xa;times_reports (un times-reports : équivalent d&#39;un mois de &#xa;CRA pour une personne)" style="text;align=left;verticalAlign=top;spacingLeft=4;spacingRight=4;overflow=hidden;rotatable=0;points=[[0,0.5],[1,0.5]];portConstraint=eastwest;rounded=0;shadow=0;html=0;fontSize=12;" parent="hzznEtGv8EUQLKMsVnbS-45" vertex="1">
          <mxGeometry y="220" width="330" height="60" as="geometry" />
        </mxCell>
        <mxCell id="hzznEtGv8EUQLKMsVnbS-52" value="getTimeReportById : On récupère un TimeReport par son id" style="text;align=left;verticalAlign=top;spacingLeft=4;spacingRight=4;overflow=hidden;rotatable=0;points=[[0,0.5],[1,0.5]];portConstraint=eastwest;rounded=0;shadow=0;html=0;fontSize=12;" parent="hzznEtGv8EUQLKMsVnbS-45" vertex="1">
          <mxGeometry y="280" width="330" height="30" as="geometry" />
        </mxCell>
        <mxCell id="0CtX56IpB0Ks7xuWvzFu-2" value="data-processing.module" style="swimlane;fontStyle=3;align=center;verticalAlign=top;childLayout=stackLayout;horizontal=1;startSize=30;horizontalStack=0;resizeParent=1;resizeLast=0;collapsible=1;marginBottom=0;rounded=0;shadow=0;strokeWidth=1;fontSize=16;" parent="97kiHMk0axNDUqss_M9O-1" vertex="1">
          <mxGeometry x="80" y="860" width="280" height="60" as="geometry">
            <mxRectangle x="230" y="140" width="160" height="26" as="alternateBounds" />
          </mxGeometry>
        </mxCell>
        <mxCell id="0CtX56IpB0Ks7xuWvzFu-3" value="objectToCSV" style="text;align=left;verticalAlign=top;spacingLeft=4;spacingRight=4;overflow=hidden;rotatable=0;points=[[0,0.5],[1,0.5]];portConstraint=eastwest;rounded=0;shadow=0;html=0;fontSize=12;" parent="0CtX56IpB0Ks7xuWvzFu-2" vertex="1">
          <mxGeometry y="30" width="280" height="30" as="geometry" />
        </mxCell>
        <mxCell id="0ND6NDaW7b7xMRFepVpp-0" value="&lt;font style=&quot;font-size: 24px&quot;&gt;Partie Zoho&lt;/font&gt;" style="text;html=1;strokeColor=none;fillColor=none;align=center;verticalAlign=middle;whiteSpace=wrap;rounded=0;fontSize=11;" parent="97kiHMk0axNDUqss_M9O-1" vertex="1">
          <mxGeometry x="120" y="210" width="180" height="30" as="geometry" />
        </mxCell>
        <mxCell id="0ND6NDaW7b7xMRFepVpp-1" value="&lt;font style=&quot;font-size: 24px&quot;&gt;Partie Boond&lt;/font&gt;" style="text;html=1;strokeColor=none;fillColor=none;align=center;verticalAlign=middle;whiteSpace=wrap;rounded=0;fontSize=11;" parent="97kiHMk0axNDUqss_M9O-1" vertex="1">
          <mxGeometry x="530" y="210" width="180" height="30" as="geometry" />
        </mxCell>
        <mxCell id="0ND6NDaW7b7xMRFepVpp-2" value="&lt;font style=&quot;font-size: 24px&quot;&gt;En commun&lt;/font&gt;" style="text;html=1;strokeColor=none;fillColor=none;align=center;verticalAlign=middle;whiteSpace=wrap;rounded=0;fontSize=11;" parent="97kiHMk0axNDUqss_M9O-1" vertex="1">
          <mxGeometry x="120" y="810" width="180" height="30" as="geometry" />
        </mxCell>
      </root>
    </mxGraphModel>
  </diagram>
  <diagram id="bM1NtP6lwZWX9Me5cLSn" name="Zoho">
    <mxGraphModel dx="4660" dy="608" grid="1" gridSize="10" guides="1" tooltips="1" connect="1" arrows="1" fold="1" page="1" pageScale="1" pageWidth="1169" pageHeight="827" math="0" shadow="0">
      <root>
        <mxCell id="0" />
        <mxCell id="1" parent="0" />
        <mxCell id="Na4635gE1nvj6NnQfsRO-1" value="&lt;span style=&quot;font-size: 24px ; font-style: italic ; font-weight: 700&quot;&gt;ZohoController&lt;/span&gt;" style="rounded=1;whiteSpace=wrap;html=1;" vertex="1" parent="1">
          <mxGeometry x="-2549" y="30" width="240" height="181" as="geometry" />
        </mxCell>
        <mxCell id="Na4635gE1nvj6NnQfsRO-2" value="&lt;span style=&quot;font-size: 24px ; font-style: italic ; font-weight: 700&quot;&gt;ZohoModule&lt;/span&gt;" style="rounded=1;whiteSpace=wrap;html=1;" vertex="1" parent="1">
          <mxGeometry x="-2549" y="370" width="240" height="181" as="geometry" />
        </mxCell>
        <mxCell id="Na4635gE1nvj6NnQfsRO-3" value="&lt;span style=&quot;font-size: 24px ; font-style: italic ; font-weight: 700&quot;&gt;ZohoService&lt;/span&gt;" style="rounded=1;whiteSpace=wrap;html=1;" vertex="1" parent="1">
          <mxGeometry x="-2549" y="710" width="240" height="181" as="geometry" />
        </mxCell>
        <mxCell id="Na4635gE1nvj6NnQfsRO-4" value="&lt;h1 style=&quot;font-size: 22px&quot;&gt;&lt;span style=&quot;font-weight: 400&quot;&gt;Le controller permets de redistribuer les appels à l&#39;API aux méthodes nécessaires. C&#39;est un peu comme une télécommande.&lt;/span&gt;&lt;/h1&gt;" style="text;html=1;strokeColor=none;fillColor=none;spacing=5;spacingTop=-20;whiteSpace=wrap;overflow=hidden;rounded=0;" vertex="1" parent="1">
          <mxGeometry x="-2279" y="74.5" width="420" height="92" as="geometry" />
        </mxCell>
        <mxCell id="Na4635gE1nvj6NnQfsRO-5" value="&lt;h1 style=&quot;font-size: 22px&quot;&gt;&lt;span style=&quot;font-weight: 400&quot;&gt;Le module va contenir la logique, il va faire tout le traitement dont on aura besoin. Tout ce qui prends du temps ou nécéssite de la reflexion se trouve ici. On pourrait imaginer cet étape comme un grand hangar de chaine de production avec des robots.&lt;/span&gt;&lt;/h1&gt;" style="text;html=1;strokeColor=none;fillColor=none;spacing=5;spacingTop=-20;whiteSpace=wrap;overflow=hidden;rounded=0;" vertex="1" parent="1">
          <mxGeometry x="-2279" y="365.37" width="420" height="190.25" as="geometry" />
        </mxCell>
        <mxCell id="Na4635gE1nvj6NnQfsRO-6" value="&lt;span style=&quot;font-size: 24px ; font-style: italic ; font-weight: 700&quot;&gt;Utils&lt;/span&gt;" style="rounded=1;whiteSpace=wrap;html=1;" vertex="1" parent="1">
          <mxGeometry x="-3029" y="365.37" width="240" height="181" as="geometry" />
        </mxCell>
        <mxCell id="Na4635gE1nvj6NnQfsRO-7" value="&lt;h1 style=&quot;font-size: 22px&quot;&gt;&lt;span style=&quot;font-weight: 400&quot;&gt;Utils, c&#39;est des &lt;/span&gt;utilitaires&lt;span style=&quot;font-weight: 400&quot;&gt;, c&#39;est un bouquet de méthodes qui sont réutilisées plusieurs fois dans le code, et qui sont indépendantes des &quot;flux de donnée&quot; que sont les autres méthodes&lt;/span&gt;&lt;/h1&gt;" style="text;html=1;strokeColor=none;fillColor=none;spacing=5;spacingTop=-20;whiteSpace=wrap;overflow=hidden;rounded=0;" vertex="1" parent="1">
          <mxGeometry x="-3460" y="392.25" width="420" height="136.5" as="geometry" />
        </mxCell>
        <mxCell id="Na4635gE1nvj6NnQfsRO-8" value="&lt;h1 style=&quot;font-size: 22px&quot;&gt;&lt;span style=&quot;font-weight: 400&quot;&gt;Le service c&#39;est l&#39;étape de &quot;récupération&quot; des données, et uniquement de récupération. C&#39;est l&#39;équivalent des robots de la chaine de production : les méthodes contenues ne font que &lt;/span&gt;retourner &lt;span style=&quot;font-weight: 400&quot;&gt;des données aux méthodes qui les appellent.&lt;/span&gt;&lt;/h1&gt;" style="text;html=1;strokeColor=none;fillColor=none;spacing=5;spacingTop=-20;whiteSpace=wrap;overflow=hidden;rounded=0;" vertex="1" parent="1">
          <mxGeometry x="-2279" y="720.5" width="420" height="160" as="geometry" />
        </mxCell>
        <mxCell id="Na4635gE1nvj6NnQfsRO-9" value="" style="endArrow=classic;html=1;rounded=0;fontSize=22;exitX=0.5;exitY=1;exitDx=0;exitDy=0;entryX=0.5;entryY=0;entryDx=0;entryDy=0;" edge="1" parent="1" source="Na4635gE1nvj6NnQfsRO-1" target="Na4635gE1nvj6NnQfsRO-2">
          <mxGeometry width="50" height="50" relative="1" as="geometry">
            <mxPoint x="-2399" y="672" as="sourcePoint" />
            <mxPoint x="-2349" y="622" as="targetPoint" />
          </mxGeometry>
        </mxCell>
        <mxCell id="Na4635gE1nvj6NnQfsRO-10" value="" style="endArrow=classic;html=1;rounded=0;fontSize=22;exitX=0.5;exitY=1;exitDx=0;exitDy=0;entryX=0.5;entryY=0;entryDx=0;entryDy=0;" edge="1" parent="1">
          <mxGeometry width="50" height="50" relative="1" as="geometry">
            <mxPoint x="-2429.71" y="551" as="sourcePoint" />
            <mxPoint x="-2429.71" y="710" as="targetPoint" />
          </mxGeometry>
        </mxCell>
        <mxCell id="Na4635gE1nvj6NnQfsRO-11" value="" style="endArrow=classic;html=1;rounded=0;fontSize=22;exitX=0.5;exitY=1;exitDx=0;exitDy=0;entryX=1;entryY=0.75;entryDx=0;entryDy=0;" edge="1" parent="1" target="Na4635gE1nvj6NnQfsRO-6">
          <mxGeometry width="50" height="50" relative="1" as="geometry">
            <mxPoint x="-2550.4300000000003" y="792" as="sourcePoint" />
            <mxPoint x="-2550.4300000000003" y="951" as="targetPoint" />
          </mxGeometry>
        </mxCell>
        <mxCell id="Na4635gE1nvj6NnQfsRO-12" value="" style="endArrow=classic;html=1;rounded=0;fontSize=22;exitX=0;exitY=0.5;exitDx=0;exitDy=0;entryX=1;entryY=0.5;entryDx=0;entryDy=0;" edge="1" parent="1" source="Na4635gE1nvj6NnQfsRO-2" target="Na4635gE1nvj6NnQfsRO-6">
          <mxGeometry width="50" height="50" relative="1" as="geometry">
            <mxPoint x="-2549" y="472.88" as="sourcePoint" />
            <mxPoint x="-2787.5699999999997" y="181.9999999999999" as="targetPoint" />
          </mxGeometry>
        </mxCell>
        <mxCell id="Na4635gE1nvj6NnQfsRO-13" value="" style="endArrow=classic;html=1;rounded=0;fontSize=22;exitX=0;exitY=0.5;exitDx=0;exitDy=0;entryX=1;entryY=0.5;entryDx=0;entryDy=0;" edge="1" parent="1" source="Na4635gE1nvj6NnQfsRO-1">
          <mxGeometry width="50" height="50" relative="1" as="geometry">
            <mxPoint x="-2549" y="396.88" as="sourcePoint" />
            <mxPoint x="-2789" y="392.25" as="targetPoint" />
          </mxGeometry>
        </mxCell>
      </root>
    </mxGraphModel>
  </diagram>
</mxfile>
